<?xml version="1.0" encoding="UTF-8" standalone="no"?>
<!DOCTYPE svg PUBLIC "-//W3C//DTD SVG 1.1//EN" "http://www.w3.org/Graphics/SVG/1.1/DTD/svg11.dtd">
<svg version="1.1" xmlns="http://www.w3.org/2000/svg" xmlns:xlink="http://www.w3.org/1999/xlink" preserveAspectRatio="xMidYMid meet" viewBox="0 0 512 512" width="512" height="512"><defs><path d="M508 256C508 397.29 394.19 512 254 512C113.81 512 0 397.29 0 256C0 114.71 113.81 0 254 0C394.19 0 508 114.71 508 256Z" id="aOsJRye"></path><linearGradient id="gradienta16k7LAMto" gradientUnits="userSpaceOnUse" x1="64.2" y1="55.86" x2="627.71" y2="628.05"><stop style="stop-color: #a4fd49;stop-opacity: 1" offset="0%"></stop><stop style="stop-color: #4b7816;stop-opacity: 1" offset="100%"></stop></linearGradient><path d="M387.39 93.47C400.53 93.47 411.19 104.12 411.19 117.27C411.19 162.16 411.19 273.05 411.19 317.95C411.19 331.09 400.53 341.75 387.39 341.75C329.27 341.75 178.73 341.75 120.61 341.75C107.47 341.75 96.81 331.09 96.81 317.95C96.81 273.05 96.81 162.16 96.81 117.27C96.81 104.12 107.47 93.47 120.61 93.47C178.73 93.47 329.27 93.47 387.39 93.47Z" id="a2gkc0RRI"></path><path d="M125.48 119.99L382.52 119.99L382.52 316.78L125.48 316.78L125.48 119.99Z" id="fayi9af40"></path><path d="M329.12 293.16C342.69 293.16 353.68 282.17 353.68 268.6C353.68 243.29 353.68 191.92 353.68 166.61C353.68 153.05 342.69 142.05 329.12 142.05C294.16 142.05 213.84 142.05 178.88 142.05C165.31 142.05 154.32 153.05 154.32 166.61C154.32 191.92 154.32 243.29 154.32 268.6C154.32 282.17 165.31 293.16 178.88 293.16C213.84 293.16 294.16 293.16 329.12 293.16Z" id="a1dSvqnZS"></path><linearGradient id="gradientaOQ7FLOpk" gradientUnits="userSpaceOnUse" x1="188.17" y1="188.88" x2="550.41" y2="407.38"><stop style="stop-color: #37e417;stop-opacity: 1" offset="0%"></stop><stop style="stop-color: #010000;stop-opacity: 1" offset="100%"></stop></linearGradient><path d="" id="akkcOfhk4"></path><path d="M342.92 434.04C343.96 434.04 344.51 432.8 343.82 432.03C336.89 424.3 319.57 404.97 291.85 374.06L212.8 374.06C186.75 405.67 170.48 425.43 163.97 433.34C163.74 433.62 163.94 434.04 164.3 434.04C200.56 434.04 307.01 434.04 342.92 434.04Z" id="c3GkUnBUg"></path></defs><g><g><g><use xlink:href="#aOsJRye" opacity="1" fill="url(#gradienta16k7LAMto)"></use><g><use xlink:href="#aOsJRye" opacity="1" fill-opacity="0" stroke="#ffffff" stroke-width="4" stroke-opacity="1"></use></g></g><g><g><filter id="shadow12647538" x="83.81" y="80.47" width="345.37" height="277.28" filterUnits="userSpaceOnUse" primitiveUnits="userSpaceOnUse"><feFlood></feFlood><feComposite in2="SourceAlpha" operator="in"></feComposite><feGaussianBlur stdDeviation="1"></feGaussianBlur><feOffset dx="5" dy="3" result="afterOffset"></feOffset><feFlood flood-color="#000000" flood-opacity="0.5"></feFlood><feComposite in2="afterOffset" operator="in"></feComposite><feMorphology operator="dilate" radius="1"></feMorphology><feComposite in2="SourceAlpha" operator="out"></feComposite></filter><path d="M387.39 93.47C400.53 93.47 411.19 104.12 411.19 117.27C411.19 162.16 411.19 273.05 411.19 317.95C411.19 331.09 400.53 341.75 387.39 341.75C329.27 341.75 178.73 341.75 120.61 341.75C107.47 341.75 96.81 331.09 96.81 317.95C96.81 273.05 96.81 162.16 96.81 117.27C96.81 104.12 107.47 93.47 120.61 93.47C178.73 93.47 329.27 93.47 387.39 93.47Z" id="b65ffw4Rj" fill="white" fill-opacity="1" filter="url(#shadow12647538)"></path></g><use xlink:href="#a2gkc0RRI" opacity="1" fill="#3d3d3d" fill-opacity="1"></use></g><g><use xlink:href="#fayi9af40" opacity="1" fill="#d2d2d2" fill-opacity="1"></use><g><use xlink:href="#fayi9af40" opacity="1" fill-opacity="0" stroke="#3d3d3d" stroke-width="1" stroke-opacity="1"></use></g></g><g><use xlink:href="#a1dSvqnZS" opacity="1" fill="url(#gradientaOQ7FLOpk)"></use></g><g><g><use xlink:href="#akkcOfhk4" opacity="1" fill-opacity="0" stroke="#3d3d3d" stroke-width="4" stroke-opacity="1"></use></g></g><g><g><filter id="shadow8465145" x="137.87" y="348.06" width="237.26" height="114.98" filterUnits="userSpaceOnUse" primitiveUnits="userSpaceOnUse"><feFlood></feFlood><feComposite in2="SourceAlpha" operator="in"></feComposite><feGaussianBlur stdDeviation="2.24"></feGaussianBlur><feOffset dx="5" dy="3" result="afterOffset"></feOffset><feFlood flood-color="#000000" flood-opacity="0.5"></feFlood><feComposite in2="afterOffset" operator="in"></feComposite><feMorphology operator="dilate" radius="6"></feMorphology><feComposite in2="SourceAlpha" operator="out"></feComposite></filter><path d="M342.92 434.04C343.96 434.04 344.51 432.8 343.82 432.03C336.89 424.3 319.57 404.97 291.85 374.06L212.8 374.06C186.75 405.67 170.48 425.43 163.97 433.34C163.74 433.62 163.94 434.04 164.3 434.04C200.56 434.04 307.01 434.04 342.92 434.04Z" id="a1qPReOID" fill="white" fill-opacity="1" filter="url(#shadow8465145)"></path></g><use xlink:href="#c3GkUnBUg" opacity="1" fill="#3d3d3d" fill-opacity="1"></use><g><use xlink:href="#c3GkUnBUg" opacity="1" fill-opacity="0" stroke="#3d3d3d" stroke-width="8" stroke-opacity="1"></use></g></g></g></g></svg>